<svg width="22" height="22" viewBox="0 0 22 22" fill="none" xmlns="http://www.w3.org/2000/svg">
<path d="M20.2427 14.7573C19.5891 14.1039 18.8113 13.6201 17.9626 13.3272C18.8716 12.7012 19.4688 11.6535 19.4688 10.4688C19.4688 8.55609 17.9127 7 16 7C14.0873 7 12.5312 8.55609 12.5312 10.4688C12.5312 11.6535 13.1284 12.7012 14.0374 13.3272C13.1887 13.6201 12.4109 14.1039 11.7574 14.7573C10.6241 15.8906 10 17.3973 10 19H10.9375C10.9375 16.2085 13.2085 13.9375 16 13.9375C18.7915 13.9375 21.0625 16.2085 21.0625 19H22C22 17.3973 21.3759 15.8906 20.2427 14.7573ZM16 13C14.6043 13 13.4688 11.8645 13.4688 10.4688C13.4688 9.073 14.6043 7.9375 16 7.9375C17.3957 7.9375 18.5312 9.073 18.5312 10.4688C18.5312 11.8645 17.3957 13 16 13Z" fill="#B3B3B3"/>
<path d="M12.1902 11.0391C11.8639 10.8381 11.531 10.665 11.1922 10.52C12.2893 9.45295 13.0004 7.75393 13.0004 5.84375C13.0004 2.62152 10.9771 0 8.49016 0C6.00321 0 3.97995 2.62152 3.97995 5.84375C3.97995 7.75603 4.69256 9.45673 5.79176 10.5235C4.78466 10.9531 3.83967 11.6216 3.01258 12.503C1.49595 14.1194 0.441458 16.3739 0.0433994 18.8514C-0.0813609 19.6277 0.0681061 20.425 0.453397 21.0388C0.836798 21.6497 1.40532 22 2.01313 22H10.1815C10.5478 22 10.8448 21.6153 10.8448 21.1406C10.8448 20.666 10.5478 20.2812 10.1815 20.2812H2.01313C1.72999 20.2812 1.55916 20.0765 1.48255 19.9544C1.35027 19.7437 1.29906 19.4693 1.34207 19.2017C2.03038 14.9179 4.94663 11.7886 8.31433 11.6831C8.37266 11.686 8.43126 11.6875 8.49016 11.6875C8.54962 11.6875 8.60882 11.686 8.66771 11.683C9.69976 11.7144 10.6923 12.0196 11.6207 12.5914C11.9516 12.7951 12.3472 12.6128 12.5045 12.1841C12.6617 11.7555 12.5211 11.2428 12.1902 11.0391ZM8.65193 9.96346C8.5981 9.96222 8.54418 9.96157 8.49016 9.96157C8.43663 9.96157 8.38311 9.96226 8.32965 9.96355C6.64843 9.85488 5.30648 8.04856 5.30648 5.84375C5.30648 3.5692 6.73466 1.71875 8.49016 1.71875C10.2457 1.71875 11.6738 3.5692 11.6738 5.84375C11.6738 8.048 10.3325 9.85398 8.65193 9.96346Z" fill="#B3B3B3"/>
</svg>
