<?xml version="1.0"?>
<svg xmlns="http://www.w3.org/2000/svg" height="512px" viewBox="0 0 512 512" width="512px" class=""><g><path d="m256 512c-141.164062 0-256-114.835938-256-256s114.835938-256 256-256 256 114.835938 256 256-114.835938 256-256 256zm0-480c-123.519531 0-224 100.480469-224 224s100.480469 224 224 224 224-100.480469 224-224-100.480469-224-224-224zm0 0" data-original="#000000" class="active-path" data-old_color="#000000" fill="#1DB954"/><path d="m256 405.332031c-8.832031 0-16-7.167969-16-16v-266.664062c0-8.832031 7.167969-16 16-16s16 7.167969 16 16v266.664062c0 8.832031-7.167969 16-16 16zm0 0" data-original="#000000" class="active-path" data-old_color="#000000" fill="#1DB954"/><path d="m256 405.332031c-4.097656 0-8.191406-1.554687-11.308594-4.691406l-85.332031-85.332031c-6.25-6.253906-6.25-16.386719 0-22.636719s16.382813-6.25 22.636719 0l74.023437 74.027344 74.027344-74.027344c6.25-6.25 16.386719-6.25 22.636719 0s6.25 16.382813 0 22.636719l-85.335938 85.332031c-3.15625 3.136719-7.25 4.691406-11.347656 4.691406zm0 0" data-original="#000000" class="active-path" data-old_color="#000000" fill="#1DB954"/></g> </svg>
