<?xml version="1.0"?>
<svg xmlns="http://www.w3.org/2000/svg" xmlns:xlink="http://www.w3.org/1999/xlink" version="1.1" id="Capa_1" x="0px" y="0px" viewBox="0 0 511.995 511.995" style="enable-background:new 0 0 511.995 511.995;" xml:space="preserve" width="512px" height="512px" class=""><g><g>
	<g>
		<path d="M509.731,15.258c-3.42-6.536-10.2-10.63-17.576-10.63H19.845c-7.382,0-14.149,4.088-17.576,10.63    c-3.427,6.542-2.944,14.44,1.257,20.506l177.725,256.853v194.904c0,10.961,8.884,19.845,19.845,19.845h109.809    c10.961,0,19.845-8.884,19.845-19.845V292.618L508.474,35.765C512.668,29.692,513.151,21.794,509.731,15.258z M294.585,275.135    c-2.295,3.321-3.526,7.257-3.526,11.292v181.251h-70.119V286.426c0-4.035-1.23-7.971-3.526-11.292L57.709,44.318h396.588    L294.585,275.135z" data-original="#000000" class="active-path" data-old_color="#000000" fill="#B3B3B3"/>
	</g>
</g></g> </svg>
