<svg width="31" height="31" viewBox="0 0 31 31" fill="none" xmlns="http://www.w3.org/2000/svg">
<path d="M27.4709 17.6318C26.1571 16.4714 25.0129 15.1322 24.072 13.6533C25.3622 11.4017 26.4979 9.06503 27.4713 6.65946C27.6986 6.09918 27.426 5.82569 27.3374 5.75541C27.0838 5.57223 26.7364 5.59255 26.5059 5.80405C23.5972 7.84921 20.6608 6.74014 17.5524 5.56412C14.4195 4.37958 11.1858 3.16301 7.96619 5.3298C7.73703 4.80775 7.21869 4.47261 6.64858 4.47788L6.589 4.47856C5.80392 4.48799 5.17454 5.13096 5.18187 5.91606L5.38409 24.8162C5.39028 25.3633 5.75912 25.8398 6.28725 25.9828C6.39505 26.0115 6.50625 26.0255 6.61779 26.0243L7.07993 26.0194L7.08033 26.0195C7.40417 26.016 7.71336 25.884 7.93987 25.6526C8.16638 25.4211 8.29164 25.1091 8.28808 24.7853L8.22565 18.931C11.2055 16.6751 14.2129 17.8044 17.393 19.0063C20.5695 20.2068 23.8508 21.4467 27.121 19.1486L27.1226 19.1473C27.4471 18.9093 27.6528 18.5424 27.6866 18.1414C27.6999 17.9469 27.6198 17.7576 27.4709 17.6318V17.6318ZM7.34412 25.0696C7.27248 25.1435 7.17419 25.1855 7.07129 25.1863L6.60912 25.1912C6.39509 25.1932 6.21982 25.0216 6.21735 24.8075L6.01494 5.90716C6.0122 5.58188 6.27304 5.31563 6.59831 5.31169L6.65744 5.3111C6.71096 5.31042 6.76432 5.31713 6.81601 5.33103C7.07119 5.39985 7.24968 5.62968 7.25318 5.89394L7.25496 6.06162L7.25474 6.06246L7.35833 15.7422L7.45504 24.7939C7.45632 24.897 7.41639 24.9962 7.34412 25.0696V25.0696ZM26.6409 18.4671C23.732 20.5114 20.7954 19.4016 17.6879 18.2267C14.5923 17.0565 11.3973 15.8488 8.21511 17.9125L8.1245 9.45591L8.09034 6.26014C11.0701 4.00476 14.0754 5.1411 17.2579 6.34378C20.2799 7.48545 23.3992 8.66502 26.5144 6.79253C25.5992 9.00612 24.5424 11.1585 23.3505 13.2363C23.1928 13.5039 23.2008 13.838 23.3712 14.0978C24.3366 15.6118 25.5027 16.9881 26.8375 18.1891C26.799 18.2983 26.7309 18.3945 26.6409 18.4671Z" fill="#B3B3B3"/>
</svg>
