<svg width="32" height="32" viewBox="0 0 32 32" fill="none" xmlns="http://www.w3.org/2000/svg">
<path d="M31.1367 13.9185C31.136 13.9177 31.1352 13.917 31.1345 13.9163L18.081 0.863281C17.5246 0.306641 16.7849 0 15.998 0C15.2112 0 14.4714 0.306396 13.9148 0.863037L0.868136 13.9094C0.863741 13.9138 0.859347 13.9185 0.854952 13.9229C-0.287626 15.072 -0.285673 16.9365 0.860567 18.0828C1.38425 18.6067 2.0759 18.9102 2.8154 18.9419C2.84543 18.9448 2.8757 18.9463 2.90622 18.9463H3.42649V28.5525C3.42649 30.4534 4.97312 32 6.87448 32H11.9814C12.499 32 12.9189 31.5803 12.9189 31.0625V23.5312C12.9189 22.6638 13.6245 21.9583 14.4919 21.9583H17.5041C18.3716 21.9583 19.0771 22.6638 19.0771 23.5312V31.0625C19.0771 31.5803 19.4968 32 20.0146 32H25.1216C27.0229 32 28.5695 30.4534 28.5695 28.5525V18.9463H29.052C29.8386 18.9463 30.5783 18.6399 31.1352 18.0833C32.2827 16.9351 32.2832 15.0674 31.1367 13.9185Z" fill="#B3B3B3"/>
</svg>
