<?xml version="1.0"?>
<svg xmlns="http://www.w3.org/2000/svg" xmlns:xlink="http://www.w3.org/1999/xlink" version="1.1" id="Capa_1" x="0px" y="0px" viewBox="0 0 416 416" style="enable-background:new 0 0 416 416;" xml:space="preserve" width="512px" height="512px"><g><g>
	<g>
		<path d="M340.699,135.776c-13.152-26.976-35.744-42.112-57.568-56.736c-16.32-10.912-31.712-21.216-42.56-35.936l-1.952-2.624    c-6.432-8.64-13.696-18.432-14.848-26.656c-0.096-0.736-0.48-1.312-0.672-1.984c-0.288-1.056-0.576-2.08-1.056-3.04    c-0.48-0.96-1.088-1.76-1.728-2.56c-0.608-0.768-1.184-1.504-1.92-2.144c-0.864-0.768-1.824-1.312-2.816-1.888    c-0.768-0.416-1.472-0.832-2.336-1.12c-1.12-0.416-2.272-0.576-3.488-0.736C209.115,0.288,208.571,0,207.931,0    c-0.384,0-0.704,0.192-1.056,0.224c-0.416,0.032-0.768-0.128-1.152-0.064c-0.704,0.096-1.248,0.48-1.92,0.672    c-1.088,0.288-2.112,0.576-3.072,1.088c-0.896,0.448-1.664,1.024-2.432,1.632c-0.832,0.64-1.632,1.28-2.304,2.08    c-0.672,0.768-1.152,1.568-1.664,2.464c-0.544,0.896-1.024,1.76-1.376,2.752c-0.32,0.992-0.48,2.016-0.608,3.072    c-0.096,0.704-0.416,1.344-0.416,2.08v285.12c-13.408-8.128-29.92-13.12-48-13.12c-44.096,0-80,28.704-80,64    c0,35.296,35.904,64,80,64s80-28.704,80-64V72.704c12.544,13.376,27.104,23.36,41.376,32.928    c19.168,12.832,37.28,24.96,46.656,44.16c5.856,12.032,8.704,25.088,8,36.768c-1.728,28.48-12.48,57.152-28.032,74.848    c-5.824,6.624-5.184,16.736,1.44,22.592c3.04,2.688,6.784,4,10.56,4c4.448,0,8.864-1.856,12-5.44    c20.032-22.784,33.824-58.816,35.968-94.048C352.955,171.168,349.083,152.928,340.699,135.776z M143.931,384    c-26.016,0-48-14.656-48-32s21.984-32,48-32s48,14.656,48,32S169.947,384,143.931,384z" data-original="#000000" class="active-path" data-old_color="#000000" fill="#B3B3B3"/>
	</g>
</g></g> </svg>
