<?xml version="1.0"?>
<svg xmlns="http://www.w3.org/2000/svg" xmlns:xlink="http://www.w3.org/1999/xlink" version="1.1" id="Capa_1" x="0px" y="0px" viewBox="0 0 235.592 235.592" style="enable-background:new 0 0 235.592 235.592;" xml:space="preserve" width="512px" height="512px"><g><g>
	<path d="M117.795,0.002C52.843,0.002,0,52.844,0,117.795C0,182.747,52.843,235.59,117.795,235.59   c64.953,0,117.797-52.843,117.797-117.795C235.592,52.844,182.748,0.002,117.795,0.002z M117.795,220.59   C61.113,220.59,15,174.477,15,117.795C15,61.114,61.113,15.002,117.795,15.002c56.683,0,102.797,46.112,102.797,102.793   C220.592,174.477,174.477,220.59,117.795,220.59z" data-original="#000000" class="active-path" data-old_color="#000000" fill="#B3B3B3"/>
	<path d="M139.834,68.258c-4.143,0-7.5,3.357-7.5,7.5v84.076c0,4.143,3.357,7.5,7.5,7.5s7.5-3.357,7.5-7.5V75.758   C147.334,71.615,143.977,68.258,139.834,68.258z" data-original="#000000" class="active-path" data-old_color="#000000" fill="#B3B3B3"/>
	<path d="M95.758,68.258c-4.143,0-7.5,3.357-7.5,7.5v84.076c0,4.143,3.357,7.5,7.5,7.5s7.5-3.357,7.5-7.5V75.758   C103.258,71.615,99.9,68.258,95.758,68.258z" data-original="#000000" class="active-path" data-old_color="#000000" fill="#B3B3B3"/>
</g></g> </svg>
