<svg width="56" height="56" viewBox="0 0 56 56" fill="none" xmlns="http://www.w3.org/2000/svg">
<path d="M0 8C0 3.58172 3.58172 0 8 0H56V56H8C3.58172 56 0 52.4183 0 48V8Z" fill="#896BA0"/>
<path d="M0 8C0 3.58172 3.58172 0 8 0H56V56H8C3.58172 56 0 52.4183 0 48V8Z" fill="url(#paint0_radial)"/>
<path d="M0 8C0 3.58172 3.58172 0 8 0H56V56H8C3.58172 56 0 52.4183 0 48V8Z" fill="url(#paint1_radial)"/>
<path d="M21.472 25.8385H20.7718V27.4H19.8929V23.1344H21.4778C21.9817 23.1344 22.3704 23.2467 22.6438 23.4713C22.9173 23.6959 23.054 24.0133 23.054 24.4234C23.054 24.7144 22.9905 24.9576 22.8636 25.1529C22.7386 25.3463 22.5481 25.5006 22.2923 25.6158L23.2151 27.359V27.4H22.2718L21.472 25.8385ZM20.7718 25.1266H21.4807C21.7014 25.1266 21.8723 25.0709 21.9934 24.9596C22.1145 24.8463 22.1751 24.691 22.1751 24.4937C22.1751 24.2926 22.1175 24.1344 22.0022 24.0191C21.8889 23.9039 21.7141 23.8463 21.4778 23.8463H20.7718V25.1266ZM25.8961 27.4C25.8571 27.3238 25.8288 27.2291 25.8112 27.1158C25.6061 27.3443 25.3395 27.4586 25.0114 27.4586C24.7008 27.4586 24.443 27.3687 24.2379 27.1891C24.0348 27.0094 23.9332 26.7828 23.9332 26.5094C23.9332 26.1734 24.0573 25.9156 24.3053 25.7359C24.5553 25.5562 24.9157 25.4654 25.3864 25.4635H25.776V25.2818C25.776 25.1353 25.7379 25.0182 25.6618 24.9303C25.5875 24.8424 25.4694 24.7984 25.3073 24.7984C25.1647 24.7984 25.0524 24.8326 24.9704 24.901C24.8903 24.9693 24.8502 25.0631 24.8502 25.1822H24.0036C24.0036 24.9986 24.0602 24.8287 24.1735 24.6725C24.2868 24.5162 24.4469 24.3941 24.6539 24.3062C24.861 24.2164 25.0934 24.1715 25.3512 24.1715C25.7418 24.1715 26.0514 24.2701 26.2799 24.4674C26.5104 24.6627 26.6256 24.9381 26.6256 25.2935V26.6676C26.6276 26.9684 26.6696 27.1959 26.7516 27.3502V27.4H25.8961ZM25.1959 26.8111C25.3209 26.8111 25.4362 26.7838 25.5416 26.7291C25.6471 26.6725 25.7252 26.5973 25.776 26.5035V25.9586H25.4596C25.0358 25.9586 24.8102 26.1051 24.7829 26.398L24.7799 26.4478C24.7799 26.5533 24.817 26.6402 24.8913 26.7086C24.9655 26.7769 25.067 26.8111 25.1959 26.8111ZM27.5342 25.7916C27.5342 25.2975 27.6445 24.9039 27.8652 24.6109C28.0879 24.318 28.3916 24.1715 28.7764 24.1715C29.085 24.1715 29.3398 24.2867 29.541 24.5172V22.9H30.3906V27.4H29.626L29.585 27.0631C29.374 27.3268 29.1025 27.4586 28.7705 27.4586C28.3975 27.4586 28.0977 27.3121 27.8711 27.0191C27.6465 26.7242 27.5342 26.315 27.5342 25.7916ZM28.3809 25.8531C28.3809 26.15 28.4326 26.3775 28.5361 26.5357C28.6396 26.6939 28.79 26.773 28.9873 26.773C29.249 26.773 29.4336 26.6627 29.541 26.442V25.191C29.4355 24.9703 29.2529 24.86 28.9932 24.86C28.585 24.86 28.3809 25.191 28.3809 25.8531ZM32.3304 27.4H31.4808V24.2301H32.3304V27.4ZM31.431 23.4098C31.431 23.2828 31.473 23.1783 31.557 23.0963C31.6429 23.0143 31.7591 22.9732 31.9056 22.9732C32.0502 22.9732 32.1654 23.0143 32.2513 23.0963C32.3373 23.1783 32.3802 23.2828 32.3802 23.4098C32.3802 23.5387 32.3363 23.6441 32.2484 23.7262C32.1625 23.8082 32.0482 23.8492 31.9056 23.8492C31.763 23.8492 31.6478 23.8082 31.5599 23.7262C31.474 23.6441 31.431 23.5387 31.431 23.4098ZM33.2888 25.7857C33.2888 25.4713 33.3493 25.191 33.4704 24.9449C33.5915 24.6988 33.7654 24.5084 33.9919 24.3736C34.2204 24.2389 34.4851 24.1715 34.7859 24.1715C35.2136 24.1715 35.5622 24.3023 35.8318 24.5641C36.1032 24.8258 36.2546 25.1812 36.2859 25.6305L36.2917 25.8473C36.2917 26.3336 36.156 26.7242 35.8845 27.0191C35.613 27.3121 35.2487 27.4586 34.7917 27.4586C34.3347 27.4586 33.9695 27.3121 33.696 27.0191C33.4245 26.7262 33.2888 26.3277 33.2888 25.8238V25.7857ZM34.1355 25.8473C34.1355 26.148 34.1921 26.3785 34.3054 26.5387C34.4187 26.6969 34.5808 26.776 34.7917 26.776C34.9968 26.776 35.157 26.6978 35.2722 26.5416C35.3874 26.3834 35.445 26.1314 35.445 25.7857C35.445 25.4908 35.3874 25.2623 35.2722 25.1002C35.157 24.9381 34.9948 24.857 34.7859 24.857C34.5788 24.857 34.4187 24.9381 34.3054 25.1002C34.1921 25.2603 34.1355 25.5094 34.1355 25.8473Z" fill="white"/>
<path d="M20.8971 18.8372L21.8541 13.7786H23.3141L21.7369 20.888H20.2623L19.1051 16.1321L17.9479 20.888H16.4732L14.8961 13.7786H16.3561L17.318 18.8275L18.4898 13.7786H19.7301L20.8971 18.8372ZM27.5627 20.888C27.4976 20.761 27.4504 20.6032 27.4211 20.4144C27.0793 20.7952 26.635 20.9857 26.0881 20.9857C25.5705 20.9857 25.1408 20.8359 24.799 20.5364C24.4605 20.237 24.2912 19.8594 24.2912 19.4036C24.2912 18.8437 24.4979 18.414 24.9113 18.1146C25.328 17.8151 25.9286 17.6637 26.7131 17.6605H27.3625V17.3577C27.3625 17.1136 27.299 16.9183 27.1721 16.7718C27.0484 16.6253 26.8514 16.5521 26.5812 16.5521C26.3436 16.5521 26.1564 16.609 26.0197 16.723C25.8863 16.8369 25.8195 16.9931 25.8195 17.1917H24.4084C24.4084 16.8857 24.5028 16.6025 24.6916 16.3421C24.8804 16.0817 25.1473 15.8782 25.4924 15.7318C25.8374 15.582 26.2248 15.5071 26.6545 15.5071C27.3055 15.5071 27.8215 15.6715 28.2023 16.0003C28.5865 16.3258 28.7785 16.7848 28.7785 17.3773V19.6673C28.7818 20.1686 28.8518 20.5478 28.9885 20.805V20.888H27.5627ZM26.3957 19.9066C26.604 19.9066 26.7961 19.861 26.9719 19.7698C27.1477 19.6754 27.2779 19.5501 27.3625 19.3939V18.4857H26.8352C26.1288 18.4857 25.7528 18.7298 25.7072 19.2181L25.7023 19.3011C25.7023 19.4769 25.7642 19.6217 25.8879 19.7357C26.0116 19.8496 26.1809 19.9066 26.3957 19.9066ZM32.4314 18.7689L31.9236 19.2767V20.888H30.5125V13.388H31.9236V17.5433L32.1971 17.1917L33.5496 15.6048H35.2439L33.3348 17.8069L35.41 20.888H33.7889L32.4314 18.7689ZM38.8383 20.9857C38.0635 20.9857 37.432 20.748 36.9437 20.2728C36.4587 19.7975 36.2162 19.1644 36.2162 18.3734V18.2366C36.2162 17.706 36.3187 17.2324 36.5238 16.8157C36.7289 16.3958 37.0186 16.0735 37.393 15.8489C37.7706 15.6211 38.2003 15.5071 38.682 15.5071C39.4047 15.5071 39.9727 15.735 40.3861 16.1907C40.8028 16.6465 41.0111 17.2926 41.0111 18.1292V18.7054H37.6469C37.6924 19.0504 37.8292 19.3271 38.057 19.5355C38.2881 19.7438 38.5795 19.848 38.9311 19.848C39.4747 19.848 39.8995 19.651 40.2055 19.2571L40.8988 20.0335C40.6872 20.333 40.4008 20.5674 40.0395 20.7366C39.6781 20.9026 39.2777 20.9857 38.8383 20.9857ZM38.6771 16.6497C38.3972 16.6497 38.1693 16.7441 37.9936 16.9329C37.821 17.1217 37.7104 17.3919 37.6615 17.7435H39.6244V17.6312C39.6179 17.3187 39.5333 17.0778 39.3705 16.9085C39.2077 16.736 38.9766 16.6497 38.6771 16.6497Z" fill="white"/>
<defs>
<radialGradient id="paint0_radial" cx="0" cy="0" r="1" gradientUnits="userSpaceOnUse" gradientTransform="translate(28 28) rotate(89.5417) scale(28.0009 27.2091)">
<stop offset="0.9999" stop-color="#73538B"/>
<stop offset="1" stop-color="white" stop-opacity="0"/>
</radialGradient>
<radialGradient id="paint1_radial" cx="0" cy="0" r="1" gradientUnits="userSpaceOnUse" gradientTransform="translate(28 28) rotate(89.3415) scale(19.4893)">
<stop offset="0.9999" stop-color="#623F7C"/>
<stop offset="1" stop-color="white" stop-opacity="0"/>
</radialGradient>
</defs>
</svg>
