<svg width="22" height="22" viewBox="0 0 22 22" fill="none" xmlns="http://www.w3.org/2000/svg">
<path d="M6.70952 22C8.22052 22 9.44986 20.7635 9.44986 19.2433V9.89953L18.0605 7.41695V12.4053C17.5391 11.9564 16.907 11.7172 16.2596 11.7237C14.7486 11.7237 13.5189 12.9605 13.5189 14.4804C13.5189 16.0007 14.748 17.2375 16.2596 17.2375C17.7709 17.2375 18.9999 16.0007 18.9999 14.4804V2.34991C18.9999 2.18119 18.9336 2.02176 18.8198 1.91774C18.7064 1.81372 18.558 1.77654 18.4177 1.81693L8.86791 4.57047C8.65813 4.63088 8.51042 4.85072 8.51042 5.10345V17.1685C7.98902 16.7196 7.35722 16.4804 6.70952 16.4869C5.19852 16.4869 3.96887 17.7237 3.96887 19.2436C3.96887 20.7639 5.19822 22 6.70952 22V22ZM16.2596 16.139C15.2663 16.139 14.4584 15.3948 14.4584 14.4804C14.4584 13.5657 15.2663 12.8214 16.2596 12.8214C17.2525 12.8214 18.0605 13.5657 18.0605 14.4804C18.0605 15.3948 17.2525 16.1394 16.2596 16.1394V16.139ZM9.44986 5.53276L18.0605 3.05018V6.28522L9.44986 8.76816V5.53276ZM6.70952 17.5846C7.70248 17.5846 8.51042 18.3289 8.51042 19.2436C8.51042 20.158 7.70248 20.9019 6.70952 20.9019C5.71626 20.9019 4.90831 20.158 4.90831 19.2433C4.90831 18.3285 5.71626 17.5846 6.70952 17.5846Z" fill="#B3B3B3"/>
<circle cx="6" cy="5" r="5" fill="#C4C4C4"/>
<path d="M6.58461 4.6145V2.4482C6.58461 2.20076 6.43682 2 6.25466 2C6.0725 2 5.92471 2.20076 5.92471 2.4482V4.6145H4.32995C4.14779 4.6145 4 4.81525 4 5.0627C4 5.31043 4.14779 5.5109 4.32995 5.5109H5.92471V7.6772C5.92471 7.92493 6.0725 8.1254 6.25466 8.1254C6.43682 8.1254 6.58461 7.92493 6.58461 7.6772V5.5109H8.17937C8.36153 5.5109 8.50932 5.31043 8.50932 5.0627C8.50932 4.81525 8.36153 4.6145 8.17937 4.6145H6.58461Z" fill="black"/>
</svg>
