<svg width="22" height="22" viewBox="0 0 22 22" fill="none" xmlns="http://www.w3.org/2000/svg">
<rect x="12" y="3" width="10" height="2" rx="1" fill="#C4C4C4"/>
<rect x="10" y="11" width="12" height="2" rx="1" fill="#C4C4C4"/>
<rect x="2" y="18" width="20" height="2" rx="1" fill="#C4C4C4"/>
<circle cx="6.81186" cy="4.85837" r="4.85837" fill="#C4C4C4"/>
<path d="M7.23846 4.43179V2.36995C7.23846 2.13444 7.04738 1.94336 6.81187 1.94336C6.57636 1.94336 6.38528 2.13444 6.38528 2.36995V4.43179H4.32344C4.08793 4.43179 3.89685 4.62287 3.89685 4.85838C3.89685 5.09417 4.08793 5.28497 4.32344 5.28497H6.38528V7.34681C6.38528 7.5826 6.57636 7.7734 6.81187 7.7734C7.04738 7.7734 7.23846 7.5826 7.23846 7.34681V5.28497H9.3003C9.53581 5.28497 9.72689 5.09417 9.72689 4.85838C9.72689 4.62287 9.53581 4.43179 9.3003 4.43179H7.23846Z" fill="black"/>
</svg>
