<svg width="136" height="147" viewBox="0 0 136 147" fill="none" xmlns="http://www.w3.org/2000/svg">
<path d="M68.5354 146.188C76.2674 146.188 82.5354 139.919 82.5354 132.188C82.5354 124.456 76.2674 118.188 68.5354 118.188C60.8034 118.188 54.5354 124.456 54.5354 132.188C54.5354 139.919 60.8034 146.188 68.5354 146.188Z" fill="#1DB954"/>
<path d="M4.48051 60.6301C5.93796 60.6301 7.11605 59.452 7.11605 57.9946C7.11605 42.01 20.1224 29.0036 36.107 29.0036H99.3599V52.6286L135.467 26.3681L99.3599 0.107605V23.7326H36.107C17.2154 23.7326 1.84497 39.103 1.84497 57.9946C1.84497 59.452 3.02306 60.6301 4.48051 60.6301V60.6301Z" fill="#1DB954"/>
<path d="M130.986 63.2656C129.529 63.2656 128.351 64.4437 128.351 65.9012C128.351 81.8857 115.344 94.8921 99.3598 94.8921H36.1069V71.2671L0 97.5276L36.1069 123.788V100.163H99.3598C118.251 100.163 133.622 84.7927 133.622 65.9012C133.622 64.4437 132.444 63.2656 130.986 63.2656V63.2656Z" fill="#1DB954"/>
</svg>
