<svg width="20" height="21" viewBox="0 0 20 21" fill="none" xmlns="http://www.w3.org/2000/svg">
<path d="M10.0607 0.439339C10.6464 1.02512 10.6464 1.97488 10.0607 2.56066C9.47488 3.14645 8.52512 3.14645 7.93934 2.56066C7.35355 1.97488 7.35355 1.02512 7.93934 0.439339C8.5251 -0.146446 9.47485 -0.146446 10.0607 0.439339Z" fill="#B3B3B3"/>
<path d="M10.0607 9.43934C10.6464 10.0251 10.6464 10.9749 10.0607 11.5607C9.47488 12.1464 8.52512 12.1464 7.93934 11.5607C7.35355 10.9749 7.35355 10.0251 7.93934 9.43934C8.5251 8.85355 9.47485 8.85355 10.0607 9.43934Z" fill="#B3B3B3"/>
<path d="M10.0607 18.4393C10.6464 19.0251 10.6464 19.9748 10.0607 20.5606C9.47488 21.1464 8.52512 21.1464 7.93934 20.5606C7.35355 19.9748 7.35355 19.0251 7.93934 18.4393C8.5251 17.8535 9.47485 17.8535 10.0607 18.4393Z" fill="#B3B3B3"/>
</svg>
