<svg width="22" height="22" viewBox="0 0 22 22" fill="none" xmlns="http://www.w3.org/2000/svg">
<g clip-path="url(#clip0)">
<path d="M13.1275 11.0391C12.7761 10.8381 12.4176 10.665 12.0528 10.52C13.2343 9.45295 14 7.75393 14 5.84375C14 2.62152 11.8212 0 9.14298 0C6.4648 0 4.28596 2.62152 4.28596 5.84375C4.28596 7.75603 5.05337 9.45673 6.23709 10.5235C5.15254 10.9531 4.13489 11.6216 3.2442 12.503C1.61095 14.1194 0.475376 16.3739 0.0467084 18.8514C-0.0876453 19.6277 0.0733149 20.425 0.488233 21.0388C0.901115 21.6497 1.51335 22 2.16791 22H10.9644C11.3589 22 11.6786 21.6153 11.6786 21.1406C11.6786 20.666 11.3589 20.2812 10.9644 20.2812H2.16791C1.86298 20.2812 1.67902 20.0765 1.59653 19.9544C1.45407 19.7437 1.39892 19.4693 1.44524 19.2017C2.18648 14.9179 5.32697 11.7886 8.95363 11.6831C9.01645 11.686 9.07955 11.6875 9.14298 11.6875C9.20701 11.6875 9.27076 11.686 9.33419 11.683C10.4456 11.7144 11.5145 12.0196 12.5143 12.5914C12.8706 12.7951 13.2966 12.6128 13.466 12.1841C13.6353 11.7555 13.4838 11.2428 13.1275 11.0391ZM9.31719 9.96346C9.25923 9.96222 9.20116 9.96157 9.14298 9.96157C9.08534 9.96157 9.0277 9.96226 8.97013 9.96355C7.15964 9.85488 5.71449 8.04856 5.71449 5.84375C5.71449 3.5692 7.25249 1.71875 9.14298 1.71875C11.0335 1.71875 12.5715 3.5692 12.5715 5.84375C12.5715 8.048 11.127 9.85398 9.31719 9.96346Z" fill="#B3B3B3"/>
<g clip-path="url(#clip1)">
<path d="M20.4658 10.5694C20.0232 9.66154 19.2629 9.15215 18.5284 8.66C17.9792 8.29277 17.4612 7.946 17.0961 7.45062L17.0304 7.36231C16.814 7.07154 16.5695 6.742 16.5307 6.46523C16.5275 6.44046 16.5146 6.42108 16.5081 6.39846C16.4984 6.36292 16.4887 6.32846 16.4726 6.29615C16.4564 6.26385 16.436 6.23692 16.4144 6.21C16.394 6.18415 16.3746 6.15938 16.3498 6.13785C16.3207 6.112 16.2884 6.09369 16.255 6.07431C16.2292 6.06031 16.2055 6.04631 16.1764 6.03662C16.1387 6.02262 16.1 6.01723 16.059 6.01185C16.0375 6.00969 16.0192 6 15.9976 6C15.9847 6 15.974 6.00646 15.9621 6.00754C15.9481 6.00862 15.9363 6.00323 15.9233 6.00538C15.8996 6.00862 15.8813 6.02154 15.8587 6.028C15.8221 6.03769 15.7876 6.04738 15.7553 6.06462C15.7252 6.07969 15.6993 6.09908 15.6735 6.11954C15.6455 6.14108 15.6186 6.16262 15.596 6.18954C15.5733 6.21538 15.5572 6.24231 15.54 6.27246C15.5216 6.30262 15.5055 6.33169 15.4936 6.36508C15.4829 6.39846 15.4775 6.43292 15.4732 6.46846C15.47 6.49215 15.4592 6.51369 15.4592 6.53846V16.1338C15.008 15.8603 14.4523 15.6923 13.8438 15.6923C12.3598 15.6923 11.1515 16.6583 11.1515 17.8462C11.1515 19.034 12.3598 20 13.8438 20C15.3278 20 16.5361 19.034 16.5361 17.8462V8.44677C16.9583 8.89692 17.4483 9.23292 17.9286 9.55492C18.5736 9.98677 19.1832 10.3949 19.4987 11.0411C19.6958 11.446 19.7916 11.8854 19.768 12.2785C19.7098 13.2369 19.348 14.2018 18.8246 14.7974C18.6286 15.0203 18.6501 15.3606 18.873 15.5577C18.9753 15.6482 19.1013 15.6923 19.2284 15.6923C19.3781 15.6923 19.5267 15.6298 19.6323 15.5092C20.3064 14.7425 20.7706 13.5298 20.8427 12.3442C20.8783 11.7605 20.748 11.1466 20.4658 10.5694ZM13.8438 18.9231C12.9683 18.9231 12.2284 18.4298 12.2284 17.8462C12.2284 17.2625 12.9683 16.7692 13.8438 16.7692C14.7193 16.7692 15.4592 17.2625 15.4592 17.8462C15.4592 18.4298 14.7193 18.9231 13.8438 18.9231Z" fill="#B3B3B3"/>
</g>
</g>
<defs>
<clipPath id="clip0">
<rect width="22" height="22" fill="white"/>
</clipPath>
<clipPath id="clip1">
<rect x="9" y="6" width="14" height="14" fill="white"/>
</clipPath>
</defs>
</svg>
